<svg id="Layer_1" data-name="Layer 1" xmlns="http://www.w3.org/2000/svg" viewBox="0 0 382 367"><defs><style>.cls-1{isolation:isolate;}.cls-2{fill:#804b2a;}.cls-3{fill:#906447;}.cls-4{fill:#bf713e;}.cls-5{fill:#684834;}</style></defs><g class="cls-1"><polygon class="cls-2" points="142.92 310.73 65.01 268.34 65.32 99.2 143.24 141.59 142.92 310.73"/><polygon class="cls-3" points="143.24 141.59 65.32 99.2 238.76 74.83 316.68 117.21 143.24 141.59"/><polygon class="cls-4" points="316.68 117.21 316.36 286.35 142.92 310.73 143.24 141.59 316.68 117.21"/></g><g class="cls-1"><polygon class="cls-5" points="139.77 186.35 139.88 127.86 56.33 82.41 56.13 144.04 139.77 186.35"/><polygon class="cls-3" points="139.88 127.86 56.33 82.41 242.31 56.27 325.87 101.72 139.88 127.86"/><polygon class="cls-2" points="325.71 162.69 325.87 101.72 139.88 127.86 139.77 186.35 325.71 162.69"/></g><path class="cls-5" d="M262.63,272.4c-4.26.6-7.69-2.64-7.69-7.22a9.86,9.86,0,0,1,2.26-6.2,8.72,8.72,0,0,1,5.45-3.19c4.25-.6,7.7,2.65,7.69,7.23s-3.47,8.79-7.71,9.38m-46.89-82a5.76,5.76,0,0,0-1.81.54l-5.45,2.78a2.76,2.76,0,0,0-1.59,1.77,2.12,2.12,0,0,0,.8,2l5.83,5.48c2,1.94,2,5.57,0,8.1l-6.28,7.63a5.93,5.93,0,0,1-3.75,2.19,4.48,4.48,0,0,1-3.76-1.14l-5.81-5.47a2.06,2.06,0,0,0-1.65-.68,1.46,1.46,0,0,0-.34.1,2.75,2.75,0,0,0-1.43,1.93l-1.88,6.12c-.71,2.38,0,5.6,1.55,7.07l9.07,8.51a6.19,6.19,0,0,0,4.92,1.31,5.72,5.72,0,0,0,1.8-.55l12.72-6.46a7.35,7.35,0,0,0,1.63,7.54L248,265.28c0,.29,0,.59-.05.88,0,8.76,6.55,14.94,14.66,13.8s14.7-9.17,14.72-17.93-6.54-14.93-14.65-13.79h0a6.66,6.66,0,0,0-.8.17l-27.72-26.08a5.88,5.88,0,0,0-4.91-1.48,7.41,7.41,0,0,0-2.31.74l4.36-14.32c.72-2.36,0-5.58-1.55-7.05l-9.06-8.53a6.2,6.2,0,0,0-4.93-1.3"/></svg>
