<?xml version="1.0" encoding="utf-8"?>
<!-- Generator: Adobe Illustrator 26.0.3, SVG Export Plug-In . SVG Version: 6.00 Build 0)  -->
<svg version="1.1" id="Layer_1" xmlns="http://www.w3.org/2000/svg" xmlns:xlink="http://www.w3.org/1999/xlink" x="0px" y="0px"
	 viewBox="0 0 1024 1024" style="enable-background:new 0 0 1024 1024;" xml:space="preserve">
<style type="text/css">
	.st0{fill:#02F67C;}
</style>
<path class="st0" d="M339.5,905.9c149.6,0,234.7-68.6,333.6-278.9c54-115.9,100.1-229.4,153-341.9l63,20.3
	c16.9,5.6,25.9-4.5,18-20.3l-76.5-156.3c-5.6-11.2-18-12.4-25.9-9l-190.1,72c-15.7,5.6-14.6,20.3,1.1,24.7l56.2,18
	c-46.1,104.6-103.5,262-149.6,361c-51.8,110.2-77.6,187.8-165.3,187.8c-87.7,0-102.4-68.6-65.2-166.5
	c42.7-113.6,114.7-147.3,196.8-123.7c22.5-31.5,39.4-78.7,46.1-121.5c-23.6-6.8-51.8-9-75.3-9c-132.7,0-264.3,68.6-318.3,212.5
	C71.4,760.8,135.9,905.9,339.5,905.9L339.5,905.9z"/>
</svg>
