<?xml version="1.0" encoding="utf-8"?>
<!-- Generator: Adobe Illustrator 26.0.3, SVG Export Plug-In . SVG Version: 6.00 Build 0)  -->
<svg version="1.1" id="Layer_1" xmlns="http://www.w3.org/2000/svg" xmlns:xlink="http://www.w3.org/1999/xlink" x="0px" y="0px"
	 viewBox="0 0 1024 1024" style="enable-background:new 0 0 1024 1024;" xml:space="preserve">
<style type="text/css">
	.st0{fill:#FFFFFF;}
	.st1{fill:#FFD80B;}
	.st2{fill:#FFED4E;}
</style>
<g>
	<circle class="st0" cx="176" cy="663.2" r="43.2"/>
	<path class="st1" d="M889.3,187.7c140.5,291.8,10.8,562-75.7,637.7c0,43.2-97.3,97.3-129.7,75.7c-129.7,54-410.7-21.6-572.8-227
		c-64.8-75.7,10.8-227,227-389.1C478.6,176.9,694.7,101.2,889.3,187.7z"/>
	<path class="st0" d="M176,695.7c-32.4,0-21.6,0-64.8-21.6l-32.4-54C3,371.4,651.5-17.7,846,144.4C1094.6,306.6,457,620,294.8,641.6
		c-21.6,0-43.2,10.8-54,32.4C197.6,695.7,208.4,695.7,176,695.7z"/>
	<path class="st2" d="M727.2,176.9c162.1-10.8,97.3,108.1-64.8,205.4L457,490.3c-21.6,10.8-43.2-21.6-64.8,0l-32.4,64.8
		c-32.4,10.8-140.5,32.4-172.9,21.6c-54-21.6-54-97.3,54-194.5l75.7-43.2c-10.8-21.6-10.8-21.6,21.6-54
		c32.4-21.6,205.4-108.1,313.4-118.9l10.8,21.6L727.2,176.9z"/>
	<path class="st0" d="M392.1,393c10.8-10.8,32.4-21.6,32.4-43.2l86.5-32.4c0,10.8-10.8,32.4,10.8,43.2c-21.6,10.8-75.7,10.8-86.5,54
		C424.5,393,424.5,393,392.1,393z"/>
</g>
</svg>
